<svg xmlns="http://www.w3.org/2000/svg" xmlns:xlink="http://www.w3.org/1999/xlink" width="387" zoomAndPan="magnify" viewBox="0 0 290.25 112.499997" height="150" preserveAspectRatio="xMidYMid meet" version="1.0"><defs><clipPath id="9bebe76854"><path d="M 101.1875 0 L 213.191406 0 L 213.191406 112.003906 L 101.1875 112.003906 Z M 101.1875 0 " clip-rule="nonzero"/></clipPath><clipPath id="10a3facb85"><path d="M 157.191406 0 C 126.261719 0 101.1875 25.074219 101.1875 56 C 101.1875 86.929688 126.261719 112.003906 157.191406 112.003906 C 188.117188 112.003906 213.191406 86.929688 213.191406 56 C 213.191406 25.074219 188.117188 0 157.191406 0 Z M 157.191406 0 " clip-rule="nonzero"/></clipPath><clipPath id="61f54c36a0"><path d="M 0.269531 46.230469 L 112.335938 46.230469 L 112.335938 65.773438 L 0.269531 65.773438 Z M 0.269531 46.230469 " clip-rule="nonzero"/></clipPath><clipPath id="964d8e24b6"><path d="M 10.039062 46.230469 L 102.5 46.230469 C 107.894531 46.230469 112.269531 50.605469 112.269531 56 C 112.269531 61.398438 107.894531 65.773438 102.5 65.773438 L 10.039062 65.773438 C 4.644531 65.773438 0.269531 61.398438 0.269531 56 C 0.269531 50.605469 4.644531 46.230469 10.039062 46.230469 Z M 10.039062 46.230469 " clip-rule="nonzero"/></clipPath><clipPath id="37d2081e9d"><path d="M 124.21875 23.027344 L 188.433594 23.027344 L 188.433594 87.242188 L 124.21875 87.242188 Z M 124.21875 23.027344 " clip-rule="nonzero"/></clipPath><clipPath id="f35720d4c9"><path d="M 156.449219 23.027344 C 138.648438 23.027344 124.21875 37.457031 124.21875 55.257812 C 124.21875 73.058594 138.648438 87.488281 156.449219 87.488281 C 174.246094 87.488281 188.675781 73.058594 188.675781 55.257812 C 188.675781 37.457031 174.246094 23.027344 156.449219 23.027344 Z M 156.449219 23.027344 " clip-rule="nonzero"/></clipPath><clipPath id="2b7f6fd3a3"><path d="M 180.808594 46.230469 L 288.722656 46.230469 L 288.722656 62.117188 L 180.808594 62.117188 Z M 180.808594 46.230469 " clip-rule="nonzero"/></clipPath><clipPath id="5dc9f9d719"><path d="M 188.753906 46.230469 L 280.769531 46.230469 C 285.15625 46.230469 288.714844 49.785156 288.714844 54.171875 C 288.714844 58.558594 285.15625 62.117188 280.769531 62.117188 L 188.753906 62.117188 C 184.367188 62.117188 180.808594 58.558594 180.808594 54.171875 C 180.808594 49.785156 184.367188 46.230469 188.753906 46.230469 Z M 188.753906 46.230469 " clip-rule="nonzero"/></clipPath></defs><g clip-path="url(#9bebe76854)"><g clip-path="url(#10a3facb85)"><path stroke-linecap="butt" transform="matrix(0.746681, 0, 0, 0.746681, 101.188905, 0)" fill="none" stroke-linejoin="miter" d="M 75.001873 0 C 33.579 0 -0.0018822 33.580882 -0.0018822 74.998524 C -0.0018822 116.421397 33.579 150.002279 75.001873 150.002279 C 116.419515 150.002279 150.000397 116.421397 150.000397 74.998524 C 150.000397 33.580882 116.419515 0 75.001873 0 Z M 75.001873 0 " stroke="#ffffff" stroke-width="30" stroke-opacity="1" stroke-miterlimit="4"/></g></g><g clip-path="url(#61f54c36a0)"><g clip-path="url(#964d8e24b6)"><path fill="#ffffff" d="M 0.269531 46.230469 L 112.261719 46.230469 L 112.261719 65.773438 L 0.269531 65.773438 Z M 0.269531 46.230469 " fill-opacity="1" fill-rule="nonzero"/></g></g><g clip-path="url(#37d2081e9d)"><g clip-path="url(#f35720d4c9)"><path stroke-linecap="butt" transform="matrix(0.746681, 0, 0, 0.746681, 124.217916, 23.029009)" fill="none" stroke-linejoin="miter" d="M 43.166074 -0.0022308 C 19.326211 -0.0022308 0.00111721 19.322863 0.00111721 43.162726 C 0.00111721 67.002589 19.326211 86.327683 43.166074 86.327683 C 67.000705 86.327683 86.325799 67.002589 86.325799 43.162726 C 86.325799 19.322863 67.000705 -0.0022308 43.166074 -0.0022308 Z M 43.166074 -0.0022308 " stroke="#ffffff" stroke-width="30" stroke-opacity="1" stroke-miterlimit="4"/></g></g><g clip-path="url(#2b7f6fd3a3)"><g clip-path="url(#5dc9f9d719)"><path fill="#ffffff" d="M 180.808594 46.230469 L 288.722656 46.230469 L 288.722656 62.117188 L 180.808594 62.117188 Z M 180.808594 46.230469 " fill-opacity="1" fill-rule="nonzero"/></g></g></svg>