<svg xmlns="http://www.w3.org/2000/svg" xmlns:xlink="http://www.w3.org/1999/xlink" width="286" zoomAndPan="magnify" viewBox="0 0 214.5 112.499997" height="150" preserveAspectRatio="xMidYMid meet" version="1.0"><defs><clipPath id="061c436924"><path d="M 101.144531 0 L 213.148438 0 L 213.148438 112.003906 L 101.144531 112.003906 Z M 101.144531 0 " clip-rule="nonzero"/></clipPath><clipPath id="eb1da3e0e1"><path d="M 157.148438 0 C 126.21875 0 101.144531 25.074219 101.144531 56 C 101.144531 86.929688 126.21875 112.003906 157.148438 112.003906 C 188.074219 112.003906 213.148438 86.929688 213.148438 56 C 213.148438 25.074219 188.074219 0 157.148438 0 Z M 157.148438 0 " clip-rule="nonzero"/></clipPath><clipPath id="20fd0e44de"><path d="M 0.226562 46.230469 L 112.292969 46.230469 L 112.292969 65.773438 L 0.226562 65.773438 Z M 0.226562 46.230469 " clip-rule="nonzero"/></clipPath><clipPath id="05aa21fe10"><path d="M 9.996094 46.230469 L 102.457031 46.230469 C 107.851562 46.230469 112.226562 50.605469 112.226562 56 C 112.226562 61.398438 107.851562 65.773438 102.457031 65.773438 L 9.996094 65.773438 C 4.601562 65.773438 0.226562 61.398438 0.226562 56 C 0.226562 50.605469 4.601562 46.230469 9.996094 46.230469 Z M 9.996094 46.230469 " clip-rule="nonzero"/></clipPath></defs><g clip-path="url(#061c436924)"><g clip-path="url(#eb1da3e0e1)"><path stroke-linecap="butt" transform="matrix(0.746681, 0, 0, 0.746681, 101.145763, 0)" fill="none" stroke-linejoin="miter" d="M 75.002106 0 C 33.579233 0 -0.00164923 33.580882 -0.00164923 74.998524 C -0.00164923 116.421397 33.579233 150.002279 75.002106 150.002279 C 116.419748 150.002279 150.00063 116.421397 150.00063 74.998524 C 150.00063 33.580882 116.419748 0 75.002106 0 Z M 75.002106 0 " stroke="#ffffff" stroke-width="30" stroke-opacity="1" stroke-miterlimit="4"/></g></g><g clip-path="url(#20fd0e44de)"><g clip-path="url(#05aa21fe10)"><path fill="#ffffff" d="M 0.226562 46.230469 L 112.21875 46.230469 L 112.21875 65.773438 L 0.226562 65.773438 Z M 0.226562 46.230469 " fill-opacity="1" fill-rule="nonzero"/></g></g></svg>