<svg xmlns="http://www.w3.org/2000/svg" xmlns:xlink="http://www.w3.org/1999/xlink" width="387" zoomAndPan="magnify" viewBox="0 0 290.25 119.249998" height="159" preserveAspectRatio="xMidYMid meet" version="1.0"><defs><clipPath id="9de6bae83b"><path d="M 101.269531 0 L 213.066406 0 L 213.066406 111.796875 L 101.269531 111.796875 Z M 101.269531 0 " clip-rule="nonzero"/></clipPath><clipPath id="5aab5a0614"><path d="M 157.167969 0 C 126.296875 0 101.269531 25.027344 101.269531 55.898438 C 101.269531 86.769531 126.296875 111.796875 157.167969 111.796875 C 188.039062 111.796875 213.066406 86.769531 213.066406 55.898438 C 213.066406 25.027344 188.039062 0 157.167969 0 Z M 157.167969 0 " clip-rule="nonzero"/></clipPath><clipPath id="4479cf1ba5"><path d="M 0.535156 46.144531 L 112.398438 46.144531 L 112.398438 65.652344 L 0.535156 65.652344 Z M 0.535156 46.144531 " clip-rule="nonzero"/></clipPath><clipPath id="97ae7f2b20"><path d="M 10.289062 46.144531 L 102.578125 46.144531 C 107.964844 46.144531 112.332031 50.511719 112.332031 55.898438 C 112.332031 61.285156 107.964844 65.652344 102.578125 65.652344 L 10.289062 65.652344 C 4.902344 65.652344 0.535156 61.285156 0.535156 55.898438 C 0.535156 50.511719 4.902344 46.144531 10.289062 46.144531 Z M 10.289062 46.144531 " clip-rule="nonzero"/></clipPath><clipPath id="46b088c1fe"><path d="M 124.257812 22.988281 L 188.351562 22.988281 L 188.351562 87.082031 L 124.257812 87.082031 Z M 124.257812 22.988281 " clip-rule="nonzero"/></clipPath><clipPath id="3bacd60b6b"><path d="M 156.425781 22.988281 C 138.660156 22.988281 124.257812 37.390625 124.257812 55.15625 C 124.257812 72.925781 138.660156 87.328125 156.425781 87.328125 C 174.195312 87.328125 188.597656 72.925781 188.597656 55.15625 C 188.597656 37.390625 174.195312 22.988281 156.425781 22.988281 Z M 156.425781 22.988281 " clip-rule="nonzero"/></clipPath><clipPath id="5f80d60433"><path d="M 180.746094 46.144531 L 288.457031 46.144531 L 288.457031 62 L 180.746094 62 Z M 180.746094 46.144531 " clip-rule="nonzero"/></clipPath><clipPath id="c7ea7069ed"><path d="M 188.671875 46.144531 L 280.523438 46.144531 C 284.902344 46.144531 288.449219 49.695312 288.449219 54.074219 C 288.449219 58.453125 284.902344 62 280.523438 62 L 188.671875 62 C 184.292969 62 180.746094 58.453125 180.746094 54.074219 C 180.746094 49.695312 184.292969 46.144531 188.671875 46.144531 Z M 188.671875 46.144531 " clip-rule="nonzero"/></clipPath><clipPath id="63a09aaa80"><path d="M 188.402344 15.832031 L 199.503906 15.832031 L 199.503906 26.9375 L 188.402344 26.9375 Z M 188.402344 15.832031 " clip-rule="nonzero"/></clipPath><clipPath id="e14816c5de"><path d="M 193.953125 15.832031 C 190.886719 15.832031 188.402344 18.316406 188.402344 21.382812 C 188.402344 24.449219 190.886719 26.9375 193.953125 26.9375 C 197.019531 26.9375 199.503906 24.449219 199.503906 21.382812 C 199.503906 18.316406 197.019531 15.832031 193.953125 15.832031 Z M 193.953125 15.832031 " clip-rule="nonzero"/></clipPath><clipPath id="205464849e"><path d="M 182.101562 90.375 L 193.207031 90.375 L 193.207031 101.480469 L 182.101562 101.480469 Z M 182.101562 90.375 " clip-rule="nonzero"/></clipPath><clipPath id="eb0c2918ee"><path d="M 187.65625 90.375 C 184.589844 90.375 182.101562 92.859375 182.101562 95.929688 C 182.101562 98.996094 184.589844 101.480469 187.65625 101.480469 C 190.722656 101.480469 193.207031 98.996094 193.207031 95.929688 C 193.207031 92.859375 190.722656 90.375 187.65625 90.375 Z M 187.65625 90.375 " clip-rule="nonzero"/></clipPath></defs><g clip-path="url(#9de6bae83b)"><g clip-path="url(#5aab5a0614)"><path stroke-linecap="butt" transform="matrix(0.745312, 0, 0, 0.745312, 101.269455, 0.00000099375)" fill="none" stroke-linejoin="miter" d="M 75.000108 -0.00000133333 C 33.57977 -0.00000133333 0.00010297 33.579665 0.00010297 75.000003 C 0.00010297 116.420341 33.57977 150.000008 75.000108 150.000008 C 116.420446 150.000008 150.000112 116.420341 150.000112 75.000003 C 150.000112 33.579665 116.420446 -0.00000133333 75.000108 -0.00000133333 Z M 75.000108 -0.00000133333 " stroke="#000000" stroke-width="30" stroke-opacity="1" stroke-miterlimit="4"/></g></g><g clip-path="url(#4479cf1ba5)"><g clip-path="url(#97ae7f2b20)"><path fill="#000000" d="M 0.535156 46.144531 L 112.320312 46.144531 L 112.320312 65.652344 L 0.535156 65.652344 Z M 0.535156 46.144531 " fill-opacity="1" fill-rule="nonzero"/></g></g><g clip-path="url(#46b088c1fe)"><g clip-path="url(#3bacd60b6b)"><path stroke-linecap="butt" transform="matrix(0.745312, 0, 0, 0.745312, 124.256245, 22.986791)" fill="none" stroke-linejoin="miter" d="M 43.162483 0.00199977 C 19.326003 0.00199977 0.00210279 19.3259 0.00210279 43.16238 C 0.00210279 67.0041 19.326003 86.328001 43.162483 86.328001 C 67.004203 86.328001 86.328104 67.0041 86.328104 43.16238 C 86.328104 19.3259 67.004203 0.00199977 43.162483 0.00199977 Z M 43.162483 0.00199977 " stroke="#000000" stroke-width="34" stroke-opacity="1" stroke-miterlimit="4"/></g></g><g clip-path="url(#5f80d60433)"><g clip-path="url(#c7ea7069ed)"><path fill="#000000" d="M 180.746094 46.144531 L 288.457031 46.144531 L 288.457031 62 L 180.746094 62 Z M 180.746094 46.144531 " fill-opacity="1" fill-rule="nonzero"/></g></g><g clip-path="url(#63a09aaa80)"><g clip-path="url(#e14816c5de)"><path fill="#000000" d="M 188.402344 15.832031 L 199.503906 15.832031 L 199.503906 26.9375 L 188.402344 26.9375 Z M 188.402344 15.832031 " fill-opacity="1" fill-rule="nonzero"/></g></g><g clip-path="url(#205464849e)"><g clip-path="url(#eb0c2918ee)"><path fill="#000000" d="M 182.101562 90.375 L 193.207031 90.375 L 193.207031 101.480469 L 182.101562 101.480469 Z M 182.101562 90.375 " fill-opacity="1" fill-rule="nonzero"/></g></g></svg>