<svg xmlns="http://www.w3.org/2000/svg" xmlns:xlink="http://www.w3.org/1999/xlink" width="286" zoomAndPan="magnify" viewBox="0 0 214.5 112.499997" height="150" preserveAspectRatio="xMidYMid meet" version="1.0"><defs><clipPath id="7ccaa0a5c6"><path d="M 101.144531 0 L 213.148438 0 L 213.148438 112.003906 L 101.144531 112.003906 Z M 101.144531 0 " clip-rule="nonzero"/></clipPath><clipPath id="d40395f6b6"><path d="M 157.148438 0 C 126.21875 0 101.144531 25.074219 101.144531 56 C 101.144531 86.929688 126.21875 112.003906 157.148438 112.003906 C 188.074219 112.003906 213.148438 86.929688 213.148438 56 C 213.148438 25.074219 188.074219 0 157.148438 0 Z M 157.148438 0 " clip-rule="nonzero"/></clipPath><clipPath id="424b291062"><path d="M 0.226562 46.230469 L 112.292969 46.230469 L 112.292969 65.773438 L 0.226562 65.773438 Z M 0.226562 46.230469 " clip-rule="nonzero"/></clipPath><clipPath id="5e6b729886"><path d="M 9.996094 46.230469 L 102.457031 46.230469 C 107.851562 46.230469 112.226562 50.605469 112.226562 56 C 112.226562 61.398438 107.851562 65.773438 102.457031 65.773438 L 9.996094 65.773438 C 4.601562 65.773438 0.226562 61.398438 0.226562 56 C 0.226562 50.605469 4.601562 46.230469 9.996094 46.230469 Z M 9.996094 46.230469 " clip-rule="nonzero"/></clipPath><clipPath id="16e9efe1d9"><path d="M 188.4375 15.859375 L 199.5625 15.859375 L 199.5625 26.988281 L 188.4375 26.988281 Z M 188.4375 15.859375 " clip-rule="nonzero"/></clipPath><clipPath id="7779de4a86"><path d="M 194 15.859375 C 190.925781 15.859375 188.4375 18.351562 188.4375 21.421875 C 188.4375 24.496094 190.925781 26.988281 194 26.988281 C 197.070312 26.988281 199.5625 24.496094 199.5625 21.421875 C 199.5625 18.351562 197.070312 15.859375 194 15.859375 Z M 194 15.859375 " clip-rule="nonzero"/></clipPath><clipPath id="f56d087709"><path d="M 182.128906 90.542969 L 193.253906 90.542969 L 193.253906 101.667969 L 182.128906 101.667969 Z M 182.128906 90.542969 " clip-rule="nonzero"/></clipPath><clipPath id="1e016a557e"><path d="M 187.691406 90.542969 C 184.617188 90.542969 182.128906 93.03125 182.128906 96.105469 C 182.128906 99.175781 184.617188 101.667969 187.691406 101.667969 C 190.761719 101.667969 193.253906 99.175781 193.253906 96.105469 C 193.253906 93.03125 190.761719 90.542969 187.691406 90.542969 Z M 187.691406 90.542969 " clip-rule="nonzero"/></clipPath></defs><g clip-path="url(#7ccaa0a5c6)"><g clip-path="url(#d40395f6b6)"><path stroke-linecap="butt" transform="matrix(0.746681, 0, 0, 0.746681, 101.145763, 0)" fill="none" stroke-linejoin="miter" d="M 75.002106 0 C 33.579233 0 -0.00164923 33.580882 -0.00164923 74.998524 C -0.00164923 116.421397 33.579233 150.002279 75.002106 150.002279 C 116.419748 150.002279 150.00063 116.421397 150.00063 74.998524 C 150.00063 33.580882 116.419748 0 75.002106 0 Z M 75.002106 0 " stroke="#000000" stroke-width="30" stroke-opacity="1" stroke-miterlimit="4"/></g></g><g clip-path="url(#424b291062)"><g clip-path="url(#5e6b729886)"><path fill="#000000" d="M 0.226562 46.230469 L 112.21875 46.230469 L 112.21875 65.773438 L 0.226562 65.773438 Z M 0.226562 46.230469 " fill-opacity="1" fill-rule="nonzero"/></g></g><g clip-path="url(#16e9efe1d9)"><g clip-path="url(#7779de4a86)"><path fill="#000000" d="M 188.4375 15.859375 L 199.5625 15.859375 L 199.5625 26.988281 L 188.4375 26.988281 Z M 188.4375 15.859375 " fill-opacity="1" fill-rule="nonzero"/></g></g><g clip-path="url(#f56d087709)"><g clip-path="url(#1e016a557e)"><path fill="#000000" d="M 182.128906 90.542969 L 193.253906 90.542969 L 193.253906 101.667969 L 182.128906 101.667969 Z M 182.128906 90.542969 " fill-opacity="1" fill-rule="nonzero"/></g></g></svg>